<svg width="731" height="738" viewBox="0 0 731 738" fill="none" xmlns="http://www.w3.org/2000/svg">
<path d="M175.4 238.6C171.2 235.1 163.2 241.9 166.6 247C167 247.4 167.3 247.9 167.7 248.3C161.8 246.6 158.5 251.4 161.9 258C162.4 258.9 169.3 272.3 183 280.4L248.2 364.9C256.7 376 273.5 375.5 281.3 363.9L307.2 334.2L267.8 294.9L260.3 303.8C260.3 303.8 204.5 237.3 199.3 227.4" fill="#F1F1F1"/>
<path d="M339.3 126.3C335.7 134.4 288.1 121.4 233 97.2C177.8 73 136 46.8 139.6 38.7C143.2 30.6 190.8 43.6 245.9 67.8001C301 92.0001 342.9 118.2 339.3 126.3Z" fill="#F1F1F1"/>
<path d="M339.3 126.3C313 186.2 247 215.2 191.9 191C136.7 166.8 113.3 98.6999 139.6 38.7999C136 46.8999 177.9 73.0999 233 97.2999C288.1 121.4 335.7 134.4 339.3 126.3Z" fill="#CBCBCB"/>
<path d="M221.6 323.3C218.3 330.9 182.6 322.6 142 304.8C101.4 287 71.1 266.4 74.4 258.8C77.7 251.2 113.4 259.5 154 277.3C194.7 295.1 224.9 315.7 221.6 323.3Z" fill="#CBCBCB"/>
<path d="M221.6 323.3L215.7 336.8C212.4 344.4 176.7 336.1 136.1 318.3C95.5 300.5 65.2 279.9 68.5 272.3L74.4 258.8C71.1 266.4 101.3 287 142 304.8C182.7 322.6 218.3 330.9 221.6 323.3Z" fill="#F34B85"/>
<path d="M299.9 205.2C297.4 205.2 295 204.8 292.8 203.9C286.7 201.4 282.9 195 284.1 189.3C285.1 184.8 289 180.9 294.3 179.1C298.9 177.6 303.8 177.7 308.4 177.9C312.4 178.1 316.5 178.4 320.5 178.7C329.7 179.4 339.2 180.1 348.5 179.6C363.9 178.8 376.3 174.8 385.5 167.6C392.7 161.9 397.2 154.5 397.8 147.3C398.4 139.1 393.3 131 386.2 128.9C379.5 126.9 372.1 130 367.1 132.9C364.9 134.2 362.7 135.6 360.7 137C357 139.5 353.1 142.1 348.9 143.9C341.7 147 334.3 147 329 143.9C328.3 143.5 328.1 142.6 328.5 141.9C328.9 141.2 329.8 141 330.5 141.4C335.8 144.5 342.9 143.3 347.8 141.3C351.8 139.6 355.5 137.1 359.1 134.7C361.2 133.3 363.4 131.8 365.7 130.5C373.5 125.9 380.9 124.4 387 126.2C395.5 128.7 401.4 137.9 400.6 147.5C400 155.6 395.1 163.7 387.3 169.9C377.7 177.4 364.7 181.7 348.7 182.5C339.2 183 329.6 182.3 320.3 181.6C316.4 181.3 312.3 181 308.3 180.8C303.9 180.6 299.3 180.5 295.2 181.8C290.9 183.2 287.6 186.4 286.9 189.9C285.8 194.8 289.6 199.5 293.8 201.2C299.5 203.5 305.8 201.7 309 200.3C309.7 200 310.6 200.3 310.9 201.1C311.2 201.8 310.9 202.7 310.1 203C306.7 204.4 303.2 205.2 299.9 205.2Z" fill="#DADADA"/>
<path d="M120.3 126.9C118.2 126.9 116 126.4 114 125.5C109.2 123.2 105.2 118.5 102.9 112.1C102.6 111.4 103 110.5 103.7 110.3C104.4 110 105.3 110.4 105.5 111.1C106.7 114.4 109.6 120.2 115.2 122.9C119.3 124.9 125.3 124.4 128.2 120.3C130.2 117.4 130.4 112.8 128.5 108.7C126.7 104.7 123.5 101.4 120.4 98.4C117.5 95.6 114.5 92.8 111.7 90.1C105 83.7 98 77.1 91.9 69.8C81.7 57.5 76 45.1 75 32.9C74.2 23 76.9 13.8 82.4 7.89999C89 0.799985 99.7 -1.10001 107.3 3.49999C112.7 6.79999 116.7 13.2 118.6 22.1C119.2 24.7 119.6 27.3 120 29.8C120.7 34.1 121.3 38.5 122.8 42.6C124.6 47.6 128.6 53.6 134.4 55.4C135.2 55.6 135.6 56.4 135.4 57.2C135.2 58 134.4 58.4 133.6 58.2C127.8 56.4 122.8 51 120.1 43.6C118.6 39.2 117.8 34.7 117.2 30.2C116.8 27.7 116.4 25.1 115.9 22.7C114.7 17.1 111.9 9.59999 105.9 5.99999C99.5 2.19999 90.2 3.89998 84.5 9.89998C79.5 15.2 77.1 23.6 77.8 32.7C78.7 44.3 84.2 56.2 94.1 68C100.1 75.2 107 81.7 113.8 88C116.7 90.7 119.7 93.5 122.6 96.4C125.9 99.6 129.3 103.2 131.3 107.6C133.6 112.7 133.4 118.2 130.7 122C128.4 125.1 124.5 126.9 120.3 126.9Z" fill="#DADADA"/>
<path d="M185.2 305C168.6 308.2 121.5 287.6 112.6 273.2C110.9 270.4 112.3 266.8 115.4 265.8C162.6 251.1 177.7 200.8 181.3 185.6C184.7 187.6 188.2 189.4 191.9 191C195.6 192.6 199.3 194 203 195.1C194.2 208 167.5 253.2 188.7 297.9C190.1 300.8 188.4 304.3 185.2 305Z" fill="#CBCBCB"/>
<path d="M156.6 257.4C153.3 260.6 144.3 256.3 137.5 252.2L137.3 252.1L137.2 252C132.3 248.4 139.1 238.3 145.1 241.3C149.5 243.6 161.4 252.9 156.6 257.4Z" fill="#F1F1F1"/>
<path d="M164.9 247.4C161.3 250.8 151.7 246.2 144.3 241.8L144.1 241.7L144 241.6C138.7 237.7 146.1 226.8 152.5 230.1C157.1 232.5 170 242.5 164.9 247.4Z" fill="#F1F1F1"/>
<path d="M388.4 347.8L264.3 475.6C253 487.2 248.4 503.7 252 519.5L282 651.9L371.5 640.5L341.7 509.2L430.5 449C451 435.1 461.3 410.4 456.7 386.1L447.3 336.1L388.4 347.8Z" fill="#737FF6"/>
<path d="M476.2 325.8L522 451.2L658.3 453.6L660.4 545.4H507.9C486.4 545.4 466.8 532.9 457.8 513.3L382.7 362.7L476.2 325.8Z" fill="#737FF6"/>
<path d="M730.7 450.7L723.3 602.5L716.1 602.1C707.1 601.7 699.4 595.3 697.2 586.5V586.4L688.8 552.3L675.8 541C673.5 539 672.2 536.1 672.4 533C672.5 530.2 673.8 527.7 675.9 525.9C682.4 520.5 696.2 507.3 697.2 492.8C698.5 473.8 682.2 465.2 682.2 465.2C696.4 440 730.7 450.7 730.7 450.7Z" fill="#F24A4A"/>
<path d="M729.2 482.4C712 481.6 698.4 468.1 697.5 451C697.5 450.2 698.1 449.5 698.9 449.5C699.6 449.5 700.4 450.1 700.4 450.9C701.2 466.5 713.7 478.8 729.3 479.6C730.1 479.6 730.7 480.3 730.7 481.1C730.6 481.8 729.9 482.4 729.2 482.4Z" fill="#F1F1F1"/>
<path d="M692.2 567.9C691.6 567.9 691.1 567.6 690.9 567C690.6 566.3 690.9 565.4 691.7 565.1L701.1 561.1C701.8 560.8 702.7 561.1 703 561.9C703.3 562.6 703 563.5 702.2 563.8L692.8 567.8C692.5 567.9 692.4 567.9 692.2 567.9Z" fill="#CE145F"/>
<path d="M690.6 561C690 561 689.5 560.7 689.3 560.1C689 559.4 689.3 558.5 690.1 558.2L699.5 554.2C700.2 553.9 701.1 554.2 701.4 555C701.7 555.7 701.4 556.6 700.6 556.9L691.2 560.9C691 560.9 690.8 561 690.6 561Z" fill="#CE145F"/>
<path d="M689 554C688.4 554 687.9 553.7 687.7 553.1C687.4 552.4 687.7 551.5 688.5 551.2L697.9 547.2C698.6 546.9 699.5 547.2 699.8 548C700.1 548.7 699.8 549.6 699 549.9L689.6 553.9C689.4 553.9 689.2 554 689 554Z" fill="#CE145F"/>
<path d="M679 560.2C678.7 560.2 678.4 560.2 678.1 560.2C671.8 559.9 669.7 556.6 669.8 553.9C669.9 551.2 672.3 548.1 678.7 548.4C681.3 548.5 683.9 549.2 686.1 550.2C688.7 551.4 690.1 553.1 690.1 554.9C689.8 558.4 683.8 560.2 679 560.2ZM677.8 551.2C674.7 551.2 672.7 552.3 672.6 554C672.5 555.8 674.7 557.1 678.2 557.3C683 557.5 687 555.7 687.1 554.7C687.1 554.4 686.5 553.6 684.8 552.8C683 552 680.7 551.4 678.5 551.3C678.3 551.2 678 551.2 677.8 551.2Z" fill="#CE145F"/>
<path d="M678.3 571.2C676.5 571.2 675.1 570.4 674.3 569.4C672.6 567.3 672.3 563.4 677.2 559.4C681 556.3 687.5 553.6 689.9 556.6C692.3 559.6 688.4 565.4 684.7 568.5C682.3 570.4 680.1 571.2 678.3 571.2ZM679 561.5C676.3 563.7 675.3 566.1 676.5 567.5C677.7 568.9 680.2 568.4 682.8 566.2C686.5 563.2 688.3 559.1 687.6 558.3C687 557.5 682.7 558.5 679 561.5Z" fill="#CE145F"/>
<path d="M682.6 465.5C685.5 467.3 698.2 476 697 492.8C696 507.3 682.2 520.4 675.7 525.9C673.6 527.7 672.3 530.2 672.2 533C672.1 534.3 672.3 535.6 672.7 536.7L660.4 537.2L658.6 466.7L682.6 465.5Z" fill="#F1F1F1"/>
<path d="M631.3 528.6C630.5 528.6 629.9 528 629.9 527.2L627.5 453.2C627.5 452.4 628.1 451.7 628.9 451.7C629.7 451.7 630.4 452.3 630.4 453.1L632.8 527.1C632.7 527.9 632.1 528.6 631.3 528.6Z" fill="white"/>
<path d="M366.7 367.9L327.8 322.4L302.6 345.8L260.5 294.3L303.3 245.8C309.7 239 317.8 234 326.8 231.5L404.5 209.5C414.7 206.6 425.6 207 435.6 210.5L494.3 231.4L468.3 294.9L442.1 283L484.9 329.2L366.7 367.9Z" fill="#CE145F"/>
<path d="M449 347.1C449 347.1 425 346.7 422.2 358.4C419.4 370.1 450.4 366.8 450.4 366.8C450.4 366.8 466 375.1 466.9 360.4" fill="#F1F1F1"/>
<path d="M541.7 281.3C541.7 281.3 472.2 398.6 471.6 399.5C467.6 405.6 461 403.6 460.5 397.4C460.2 397.9 460 398.4 459.7 398.9C456.7 403.8 446.5 400.4 448.8 393.6L448.7 393.7C444.7 398.5 433.7 392.3 438.4 384.5C437.4 386.2 430.9 390.5 427 386.4C421 380.2 448.5 347.6 448.5 347.6L480.1 291.3L471 288.7L492.3 236.7L529.2 250.6C542.8 253.9 549.1 269.5 541.7 281.3Z" fill="#F1F1F1"/>
<path d="M170.3 237C166.6 240.1 157.7 235.1 150.8 230.4L150.6 230.3L150.5 230.2C144.4 226 153.1 215.8 159.3 219.6L164 224.6C167 226.5 175.5 232.6 170.3 237Z" fill="#F1F1F1"/>
<path d="M201.4 233.8C201.4 233.8 205.5 210.2 194.4 205.6C183.3 201 181.7 232.2 181.7 232.2C181.7 232.2 171 246.3 185.4 249.5" fill="#F1F1F1"/>
<path d="M394.2 703.9L243.4 723.3L242.5 716.1C241.3 707.1 246.2 698.5 254.5 694.8L254.6 694.7L286.7 680.4L295.6 665.6C297.2 663 299.8 661.2 302.8 660.8C305.6 660.4 308.3 661.2 310.4 663C316.9 668.4 332.2 679.7 346.7 678.1C365.6 676.1 371.3 658.5 371.3 658.5C398.6 668.3 394.2 703.9 394.2 703.9Z" fill="#F24A4A"/>
<path d="M364 709.2C363.3 709.2 362.7 708.7 362.6 708C360.4 691 371.3 675.3 387.9 671.3C388.7 671.1 389.4 671.6 389.6 672.4C389.8 673.2 389.3 673.9 388.5 674.1C373.3 677.7 363.3 692.1 365.4 707.6C365.5 708.4 364.9 709.1 364.2 709.2C364.2 709.2 364.1 709.2 364 709.2Z" fill="white"/>
<path d="M278.9 697.4C278.4 697.4 278 697.2 277.7 696.8L272.1 688.3C271.7 687.6 271.9 686.8 272.5 686.3C273.2 685.9 274 686.1 274.5 686.7L280.1 695.2C280.5 695.9 280.3 696.7 279.7 697.2C279.5 697.3 279.2 697.4 278.9 697.4Z" fill="#CE145F"/>
<path d="M285.5 693.6C285 693.6 284.6 693.4 284.3 693L278.7 684.5C278.3 683.8 278.5 683 279.1 682.5C279.8 682.1 280.6 682.3 281.1 682.9L286.7 691.4C287.1 692.1 286.9 692.9 286.3 693.4C286.1 693.5 285.8 693.6 285.5 693.6Z" fill="#CE145F"/>
<path d="M292.1 690.8C291.6 690.8 291.2 690.6 290.9 690.2L285.3 681.7C284.9 681 285.1 680.2 285.7 679.7C286.4 679.3 287.2 679.5 287.7 680.1L293.3 688.6C293.7 689.3 293.5 690.1 292.9 690.6C292.7 690.7 292.4 690.8 292.1 690.8Z" fill="#CE145F"/>
<path d="M284.1 682.2C280.5 682.2 277.8 676.1 277.2 671.4C276.9 668.8 277.1 666.7 277.9 665.1C278.7 663.4 280.2 662.4 281.9 662.1C284.6 661.8 288 663.6 288.8 669.9C289.4 674.7 288.3 681.7 284.4 682.2C284.3 682.2 284.2 682.2 284.1 682.2ZM282.5 664.9C282.4 664.9 282.3 664.9 282.2 664.9C281.4 665 280.8 665.5 280.4 666.3C280 667.1 279.6 668.5 279.9 671C280.5 675.8 282.9 679.4 284 679.3C285 679.2 286.5 675 285.9 670.2C285.6 667 284.2 664.9 282.5 664.9Z" fill="#CE145F"/>
<path d="M279.8 683.6C276.8 683.6 272.8 681.6 270.2 679.3C265.4 675.2 265.7 671.3 267.5 669.2C269.3 667.1 273 666.2 277.9 670.3C279.8 672 281.6 674.1 282.7 676.2C284 678.8 284.1 681 283 682.3C282.1 683.3 281 683.6 279.8 683.6ZM271.4 670.4C270.7 670.4 270.1 670.7 269.6 671.2C268.4 672.6 269.4 675 272 677.2C275.7 680.3 280 681.3 280.6 680.6C280.8 680.4 280.8 679.3 279.9 677.6C279 675.9 277.5 674 275.8 672.6C274.3 671.1 272.7 670.4 271.4 670.4Z" fill="#CE145F"/>
<path d="M371 659.2C369.8 662.4 363.5 676.4 346.7 678.2C332.3 679.7 316.9 668.5 310.4 663.1C308.3 661.3 305.5 660.5 302.8 660.9C301.5 661.1 300.3 661.5 299.2 662.1L296.5 650.1L366 641.2L371 659.2Z" fill="#F1F1F1"/>
<path d="M295.8 627.2C295.1 627.2 294.5 626.7 294.4 625.9C294.3 625.1 294.9 624.4 295.6 624.3L366 615.3C366.8 615.2 367.5 615.8 367.6 616.5C367.7 617.3 367.1 618 366.4 618.1L296 627.1C295.9 627.2 295.8 627.2 295.8 627.2Z" fill="#FEEEEE"/>
<path d="M176.9 230.3C172.7 232.9 164.2 226.4 158 220.5L157.8 220.3L157.7 220.2C153.4 215.3 162.9 206.2 168.4 210.7C172.5 214.1 182.9 226.6 176.9 230.3Z" fill="#F1F1F1"/>
<path d="M460.5 397.4C461.9 395.5 463.2 393.6 464.4 391.8Z" fill="white"/>
<path d="M460.5 398.9C460.2 398.9 459.9 398.8 459.6 398.6C459 398.1 458.8 397.2 459.3 396.6C460.7 394.7 462 392.8 463.1 391.1C463.5 390.4 464.4 390.2 465.1 390.6C465.8 391 466 391.9 465.6 392.6C464.5 394.4 463.1 396.3 461.6 398.3C461.3 398.7 460.9 398.9 460.5 398.9Z" fill="#E7E7E7"/>
<path d="M448.7 393.7C450.3 391.6 451.8 389.4 453 387.4Z" fill="white"/>
<path d="M448.7 395.1C448.4 395.1 448.1 395 447.8 394.8C447.2 394.3 447 393.4 447.5 392.8C449.1 390.6 450.6 388.5 451.8 386.6C452.2 385.9 453.1 385.7 453.8 386.1C454.5 386.5 454.7 387.4 454.3 388.1C453.1 390.1 451.6 392.3 449.9 394.6C449.5 394.9 449.1 395.1 448.7 395.1Z" fill="#E7E7E7"/>
<path d="M437.8 385.7C439.5 383.5 441 381.3 442.2 379.2Z" fill="white"/>
<path d="M437.8 387.2C437.5 387.2 437.2 387.1 436.9 386.9C436.3 386.4 436.1 385.5 436.6 384.9C438.3 382.7 439.8 380.5 441 378.5C441.4 377.8 442.3 377.6 443 378C443.7 378.4 443.9 379.3 443.5 380C442.3 382.1 440.7 384.3 439 386.6C438.6 387 438.2 387.2 437.8 387.2Z" fill="#E7E7E7"/>
<path d="M232.766 160.528C244.521 148.773 244.521 129.715 232.766 117.961C221.011 106.206 201.953 106.206 190.199 117.961C178.444 129.715 178.444 148.773 190.199 160.528C201.953 172.283 221.011 172.283 232.766 160.528Z" fill="#CE145F"/>
<path d="M325.8 160.1C321.1 167.7 316.4 175.8 316.1 184.7C315.8 193.5 320.2 202.3 327.4 207.4C334.6 212.5 344.4 213.6 352.6 210.4L347 212C346 218.3 343.6 224.9 343.4 226.8C355.6 237.1 373.5 232.9 378.9 217C378.3 211 376.3 198.9 375.6 191.7C388.3 142.3 337.9 139.5 325.8 160.1Z" fill="#F1F1F1"/>
<path d="M323 164.8C323 164.8 331 153 340.7 155.3C350.4 157.5 352.8 198.2 364.3 181.8C364.3 181.8 377.6 175.3 383.3 191.3C383.3 191.3 413.8 150.3 378.4 149.1C378.4 149.1 386.8 125.6 346.5 128.2C308.2 130.7 317.5 161.7 323 164.8Z" fill="black"/>
<path d="M383.4 192.7C383.3 192.7 383.3 192.7 383.2 192.7C382.7 192.6 382.2 192.3 382.1 191.8C380.4 187.1 377.9 184 374.6 182.7C370.6 181.1 366.5 182.5 365.3 183C363.1 186.1 360.9 187.4 358.7 187.2C354.3 186.6 351.8 179.7 348.9 171.8C346.5 165.1 343.7 157.6 340.4 156.8C331.8 154.8 324.3 165.6 324.2 165.7C323.8 166.3 323 166.5 322.3 166.1C318.7 164.1 314.9 154.7 316.9 145.8C318.3 139.4 324.1 128.3 346.4 126.9C362.2 125.9 372.7 128.7 377.6 135.2C381.1 139.9 380.7 145.2 380.2 147.9C388.1 148.5 393.3 151.2 395.6 156.1C401.7 168.9 385.2 191.4 384.5 192.3C384.2 192.5 383.8 192.7 383.4 192.7ZM370.5 179C372.1 179 373.8 179.3 375.6 180C379 181.4 381.8 184.2 383.7 188.4C387.6 182.6 397.5 166.4 393.1 157.3C391.1 153.1 386.2 150.9 378.4 150.6C377.9 150.6 377.5 150.4 377.3 150C377 149.6 377 149.1 377.1 148.7C377.1 148.6 379.3 142.1 375.4 136.9C371.2 131.3 361.2 128.8 346.7 129.8C327.3 131.1 321.4 139.6 319.8 146.5C318.2 153.6 320.8 160.4 322.8 162.9C325.3 159.8 332.5 152.1 341.1 154.1C345.9 155.2 348.7 162.8 351.6 170.9C353.8 176.8 356.4 184.1 359.1 184.5C360.1 184.6 361.6 183.5 363.2 181.2C363.3 181 363.5 180.8 363.7 180.7C363.9 180.4 366.7 179 370.5 179Z" fill="black"/>
<path d="M347 186.8C346.5 186.8 346.1 186.6 345.8 186.2C344.6 184.5 343.6 183.2 342.3 182.3C341.2 181.6 339.5 181.2 338.3 182C337.6 182.4 336.8 182.3 336.3 181.6C335.9 180.9 336 180.1 336.7 179.6C338.7 178.3 341.5 178.4 343.8 179.9C345.8 181.1 347.1 183.1 348.1 184.6C348.6 185.2 348.4 186.1 347.7 186.6C347.6 186.7 347.3 186.8 347 186.8Z" fill="black"/>
<path d="M324.9 181C325 182.2 324 183.3 322.8 183.4C321.6 183.5 320.5 182.5 320.4 181.3C320.3 180.1 321.3 179 322.5 178.9C323.8 178.8 324.9 179.8 324.9 181Z" fill="black"/>
<path d="M341 188.1C341.1 189.3 340.1 190.4 338.9 190.5C337.7 190.6 336.6 189.6 336.5 188.4C336.4 187.2 337.4 186.1 338.6 186C339.8 185.9 340.9 186.8 341 188.1Z" fill="black"/>
<path d="M332.5 204.2C332.3 204.2 332.1 204.1 331.8 204C331.1 203.6 330.8 202.8 331.2 202.1C332.2 200 333.9 198.6 335.8 198C337.4 197.5 339 197.6 340.5 198.4C341.2 198.8 341.5 199.6 341.1 200.3C340.7 201 339.9 201.3 339.2 200.9C338.4 200.5 337.5 200.4 336.7 200.7C335.5 201.1 334.5 202 333.8 203.4C333.5 203.9 333 204.2 332.5 204.2Z" fill="black"/>
<path d="M325.2 196.4C325.1 196.4 324.9 196.4 324.8 196.4C323.1 196.3 321.8 195.4 321.4 194.1C321.1 193.1 321.4 192.1 321.7 191.4C322.4 189.7 323.7 188.5 324.9 187.2C325.3 186.8 325.8 186.4 326.1 185.9C327.3 184.6 327.8 183.1 327.6 181.4C327.4 179 326 177.1 325.3 176.6C324 175.6 322 174.5 320 174.7C319.2 174.8 318.5 174.2 318.4 173.4C318.3 172.6 318.9 171.9 319.7 171.8C322.1 171.6 324.6 172.4 327 174.2C328.5 175.3 330.2 178.1 330.4 181C330.6 183.5 329.9 185.8 328.2 187.7C327.8 188.2 327.3 188.6 326.8 189.1C325.7 190.2 324.7 191.2 324.2 192.3C324 192.9 324 193 324 193C324 193.1 324.3 193.3 324.9 193.3C326.4 193.4 328 192.4 328.6 191.1C328.9 190.4 329.8 190 330.5 190.4C331.2 190.7 331.6 191.6 331.2 192.3C330.2 194.8 327.8 196.4 325.2 196.4Z" fill="black"/>
<path d="M362.3 183.9C363.5 177.8 369.4 173.8 375.5 174.9C381.6 176.1 385.6 182 384.5 188.1C383.3 194.2 377.4 198.2 371.3 197.1" fill="white"/>
<path d="M373.4 198.8C372.6 198.8 371.8 198.7 371 198.6C370.2 198.5 369.7 197.7 369.9 196.9C370 196.1 370.8 195.6 371.6 195.8C376.9 196.8 382.1 193.3 383.1 188C383.6 185.4 383.1 182.8 381.6 180.6C380.1 178.4 377.9 176.9 375.3 176.5C370 175.5 364.8 179 363.8 184.3C363.7 185.1 362.9 185.6 362.1 185.4C361.3 185.3 360.8 184.5 361 183.7C362.3 176.8 369 172.3 375.9 173.6C379.2 174.2 382.1 176.1 384 179C385.9 181.8 386.6 185.2 386 188.5C384.7 194.5 379.4 198.8 373.4 198.8Z" fill="black"/>
<path d="M369.5 185.3C369.9 183.2 371.9 181.8 374.1 182.2C376.2 182.6 377.6 184.6 377.2 186.8C376.8 188.9 374.8 190.3 372.6 189.9" fill="white"/>
<path d="M373.4 191.4C373.1 191.4 372.7 191.4 372.4 191.3C371.6 191.2 371.1 190.4 371.3 189.6C371.4 188.8 372.2 188.3 373 188.5C373.6 188.6 374.3 188.5 374.9 188.1C375.4 187.7 375.8 187.2 375.9 186.5C376 185.9 375.9 185.2 375.5 184.6C375.1 184.1 374.6 183.7 373.9 183.6C372.6 183.3 371.3 184.2 371 185.6C370.9 186.4 370.1 186.9 369.3 186.7C368.5 186.6 368 185.8 368.2 185C368.8 182.1 371.6 180.2 374.4 180.8C375.8 181.1 377 181.9 377.8 183C378.6 184.2 378.9 185.6 378.6 187C378.3 188.4 377.5 189.6 376.4 190.4C375.5 191.1 374.4 191.4 373.4 191.4Z" fill="black"/>
<path d="M63.4 451.8V602.5C63.4 605 61.4 607 58.9 607H19.5C17 607 15 605 15 602.5V451.8C15 449.3 17 447.3 19.5 447.3H59C61.4 447.3 63.4 449.3 63.4 451.8Z" fill="#4BB420"/>
<path d="M136.2 504.9V602.6C136.2 605.1 134.2 607.1 131.7 607.1H92.2C89.7 607.1 87.7 605.1 87.7 602.6V504.9C87.7 502.4 89.7 500.4 92.2 500.4H131.7C134.2 500.4 136.2 502.4 136.2 504.9Z" fill="black"/>
<path d="M210.6 548.9V602.5C210.6 605 208.6 607 206.1 607H166.6C164.1 607 162.1 605 162.1 602.5V548.9C162.1 546.4 164.1 544.4 166.6 544.4H206.1C208.6 544.4 210.6 546.4 210.6 548.9Z" fill="#FDA500"/>
<path d="M190.8 510.6C190.5 510.6 190.2 510.5 190 510.3L38.4 404.3C37.8 403.8 37.6 403 38 402.3C38.5 401.7 39.3 401.5 40 401.9L191.6 507.9C192.2 508.4 192.4 509.2 192 509.9C191.7 510.4 191.3 510.6 190.8 510.6Z" fill="black"/>
<path d="M42.7 423.7C42 423.7 41.4 423.2 41.3 422.5L37.8 403.4C37.7 402.6 38.2 401.9 38.9 401.7L58 398.2C58.8 398.1 59.5 398.6 59.7 399.3C59.8 400.1 59.3 400.8 58.6 401L40.9 404.2L44.1 421.9C44.2 422.7 43.7 423.4 43 423.6C42.9 423.7 42.8 423.7 42.7 423.7Z" fill="black"/>
<path d="M682 190C681.7 190 681.4 190 681.1 190C680.3 189.9 679.7 189.3 679.8 188.5C679.8 187.7 680.5 187.1 681.2 187.1H682.8C687.6 186.7 691.5 183 693.6 179.6C699 170.8 697.5 158.2 690.1 150.9C682.7 143.6 670 142.4 661.3 148C660.9 148.3 660.4 148.3 660 148.1C659.6 147.9 659.2 147.5 659.2 147.1C657.7 139.8 651.7 133.2 643.2 129.4C632.9 124.8 620.6 124.8 610.2 129.4C600.4 133.8 592.4 142.3 588.7 152.3C588.6 152.9 588.4 153.5 588.1 154C587.8 154.7 587 155 586.3 154.7C585.6 154.4 585.2 153.6 585.5 152.9C585.7 152.4 585.8 151.9 586 151.4C586.6 148.8 585.6 145.6 583.3 143.5C580.3 140.7 576.2 139.9 573.2 139.8C564.4 139.4 555.5 144 551.1 151.3C546.5 158.9 546.9 168.9 552 175.8C554.8 179.5 559.1 182.3 563.9 183.3C564.7 183.5 565.2 184.2 565 185C564.8 185.8 564.1 186.3 563.3 186.1C557.9 184.9 552.9 181.7 549.7 177.5C543.9 169.7 543.5 158.4 548.6 149.8C553.6 141.5 563.3 136.5 573.3 136.9C576.8 137.1 581.6 138 585.2 141.4C586.6 142.8 587.7 144.4 588.3 146.2C592.8 137.7 600.2 130.7 609.1 126.8C620.1 121.9 633.3 121.9 644.4 126.8C653 130.6 659.3 137.2 661.5 144.6C671.2 139.4 684.3 141.2 692.1 148.9C700.4 157.1 702.2 171.2 696 181.2C694.5 183.7 692.5 185.7 690.4 187.2H715.7C716.5 187.2 717.1 187.8 717.1 188.6C717.1 189.4 716.5 190 715.7 190H682.8C682.5 190 682.2 190 682 190Z" fill="black"/>
<path d="M593.7 186.4H546.4C545.6 186.4 545 185.8 545 185C545 184.2 545.6 183.6 546.4 183.6H593.7C594.5 183.6 595.1 184.2 595.1 185C595.1 185.7 594.5 186.4 593.7 186.4Z" fill="black"/>
<path d="M507.9 62C507.9 79.2999 493.9 93.3 476.6 93.3C459.3 93.3 445.3 79.2999 445.3 62C445.3 44.7 459.3 30.7 476.6 30.7C493.9 30.7 507.9 44.7 507.9 62Z" fill="#FDA500"/>
<path d="M476.6 19.2C475.8 19.2 475.2 18.6 475.2 17.8V10.8C475.2 10 475.8 9.40002 476.6 9.40002C477.4 9.40002 478 10 478 10.8V17.7C478.1 18.5 477.4 19.2 476.6 19.2Z" fill="black"/>
<path d="M445.3 32.1C444.9 32.1 444.6 32 444.3 31.7L439.4 26.8C438.8 26.2 438.8 25.3 439.4 24.8C440 24.2 440.9 24.2 441.4 24.8L446.3 29.7C446.9 30.3 446.9 31.2 446.3 31.7C446.1 32 445.7 32.1 445.3 32.1Z" fill="black"/>
<path d="M432.4 63.4H425.5C424.7 63.4 424.1 62.8 424.1 62C424.1 61.2 424.7 60.6 425.5 60.6H432.4C433.2 60.6 433.8 61.2 433.8 62C433.8 62.8 433.2 63.4 432.4 63.4Z" fill="black"/>
<path d="M440.4 99.6C440 99.6 439.7 99.5 439.4 99.2C438.8 98.6 438.8 97.7 439.4 97.2L444.3 92.3C444.9 91.7 445.8 91.7 446.3 92.3C446.9 92.9 446.9 93.8 446.3 94.3L441.4 99.2C441.2 99.5 440.8 99.6 440.4 99.6Z" fill="black"/>
<path d="M476.6 114.6C475.8 114.6 475.2 114 475.2 113.2V106.3C475.2 105.5 475.8 104.9 476.6 104.9C477.4 104.9 478 105.5 478 106.3V113.2C478.1 114 477.4 114.6 476.6 114.6Z" fill="black"/>
<path d="M512.8 99.6C512.4 99.6 512.1 99.5 511.8 99.2L506.9 94.3C506.3 93.7 506.3 92.8 506.9 92.3C507.5 91.7 508.4 91.7 508.9 92.3L513.8 97.2C514.4 97.8 514.4 98.7 513.8 99.2C513.6 99.5 513.2 99.6 512.8 99.6Z" fill="black"/>
<path d="M527.8 63.4H520.9C520.1 63.4 519.5 62.8 519.5 62C519.5 61.2 520.1 60.6 520.9 60.6H527.8C528.6 60.6 529.2 61.2 529.2 62C529.3 62.8 528.6 63.4 527.8 63.4Z" fill="black"/>
<path d="M507.9 32.1C507.5 32.1 507.2 32 506.9 31.7C506.3 31.1 506.3 30.2 506.9 29.7L511.8 24.8C512.4 24.2 513.3 24.2 513.8 24.8C514.4 25.4 514.4 26.3 513.8 26.8L508.9 31.7C508.7 32 508.3 32.1 507.9 32.1Z" fill="black"/>
<path d="M103.5 200.8C103.3 200.8 103 200.8 102.8 200.8C102 200.7 101.4 200.1 101.5 199.3C101.5 198.5 102.2 197.9 102.9 197.9H104.1C107.5 197.6 110.4 194.9 111.9 192.4C115.9 185.9 114.8 176.6 109.3 171.2C103.8 165.8 94.5 164.9 88.1 169.1C87.7 169.4 87.2 169.4 86.8 169.2C86.4 169 86 168.6 86 168.2C84.9 162.8 80.5 158 74.2 155.2C66.5 151.8 57.4 151.8 49.7 155.2C42.4 158.4 36.5 164.7 33.7 172.2C33.6 172.7 33.4 173.1 33.2 173.5C32.9 174.2 32.1 174.5 31.4 174.2C30.7 173.9 30.3 173.1 30.6 172.4C30.7 172 30.9 171.7 31 171.3C31.4 169.4 30.7 167.2 29.1 165.7C26.9 163.7 23.9 163.1 21.7 163C15.2 162.7 8.6 166.1 5.4 171.5C2 177.1 2.3 184.5 6.1 189.5C8.1 192.2 11.3 194.3 14.8 195C15.6 195.2 16.1 195.9 15.9 196.7C15.7 197.5 15 198 14.2 197.8C10 196.9 6.2 194.5 3.8 191.2C-0.7 185.2 -1 176.5 3 170C6.8 163.7 14.2 159.8 21.9 160.1C24.6 160.2 28.3 160.9 31.1 163.6C32 164.5 32.7 165.5 33.2 166.6C36.7 160.4 42.1 155.4 48.6 152.5C57 148.8 67 148.8 75.4 152.5C81.8 155.4 86.5 160.2 88.3 165.7C95.7 162 105.5 163.4 111.4 169.2C117.8 175.4 119.1 186.3 114.4 193.9C113.5 195.3 112.4 196.7 111 197.9H128.9C129.7 197.9 130.3 198.5 130.3 199.3C130.3 200.1 129.7 200.7 128.9 200.7H104.3C103.9 200.8 103.7 200.8 103.5 200.8Z" fill="black"/>
<path d="M37 198.1H1.4C0.6 198.1 0 197.5 0 196.7C0 195.9 0.6 195.3 1.4 195.3H37C37.8 195.3 38.4 195.9 38.4 196.7C38.4 197.4 37.8 198.1 37 198.1Z" fill="black"/>
<path d="M147.9 737.1C147.2 737.1 146.6 736.6 146.5 735.9C146.4 735.1 147 734.4 147.7 734.3L535.4 684.6C536.2 684.5 536.9 685.1 537 685.8C537.1 686.6 536.5 687.3 535.8 687.4L148.1 737.1C148.1 737.1 148 737.1 147.9 737.1Z" fill="black"/>
</svg>
